# xmcd CD database file
#
# Track frame offsets:
#	150
#	15723
#	35345
#	55070
#	66712
#	75812
#	87500
#	105893
#	124280
#	146135
#	170583
#	181236
#	191954
#
# Disc length: 2766 seconds
#
# Revision: 0
# Processed by: cddbd v1.5.1PL2 Copyright (c) Steve Scherf et al.
# Submitted via: CDex 1.60beta1
#
DISCID=b10acc0d
DTITLE=White Rabbit Record - 永禄大学協奏曲
DYEAR=1900
DGENRE=未分類 (日本)
TTITLE0=走り続けろ!!
TTITLE1=急遽オペ
TTITLE2=小百合が見た夢
TTITLE3=笑顔
TTITLE4=理想
TTITLE5=克己心
TTITLE6=汝、悪と成れ
TTITLE7=命の輝き
TTITLE8=夢見る少女
TTITLE9=安らぎのとき
TTITLE10=絶望
TTITLE11=ピーターパン
TTITLE12=とまらない感情
EXTD=
EXTT0=
EXTT1=
EXTT2=
EXTT3=
EXTT4=
EXTT5=
EXTT6=
EXTT7=
EXTT8=
EXTT9=
EXTT10=
EXTT11=
EXTT12=
PLAYORDER=
